<svg xmlns="http://www.w3.org/2000/svg" viewBox="0 0 128 128" width="128" height="128">
  <defs>
    <linearGradient id="facadeGrad" x1="0%" y1="0%" x2="100%" y2="100%">
      <stop offset="0%" style="stop-color:#FFB347;stop-opacity:1" />
      <stop offset="100%" style="stop-color:#FF8C00;stop-opacity:1" />
    </linearGradient>
    <linearGradient id="windowGrad" x1="0%" y1="0%" x2="0%" y2="100%">
      <stop offset="0%" style="stop-color:#87CEEB;stop-opacity:1" />
      <stop offset="100%" style="stop-color:#4A90D9;stop-opacity:1" />
    </linearGradient>
  </defs>
  
  <!-- Background circle -->
  <circle cx="64" cy="64" r="60" fill="url(#facadeGrad)" stroke="#E07B00" stroke-width="2"/>
  
  <!-- Building facade representation -->
  <rect x="28" y="30" width="72" height="78" rx="4" fill="#FFF5E6" stroke="#E07B00" stroke-width="2"/>
  
  <!-- Window grid (representing facade elements) -->
  <!-- Row 1 -->
  <rect x="34" y="36" width="14" height="16" rx="2" fill="url(#windowGrad)"/>
  <rect x="57" y="36" width="14" height="16" rx="2" fill="url(#windowGrad)"/>
  <rect x="80" y="36" width="14" height="16" rx="2" fill="url(#windowGrad)"/>
  
  <!-- Row 2 -->
  <rect x="34" y="58" width="14" height="16" rx="2" fill="url(#windowGrad)"/>
  <rect x="57" y="58" width="14" height="16" rx="2" fill="url(#windowGrad)"/>
  <rect x="80" y="58" width="14" height="16" rx="2" fill="url(#windowGrad)"/>
  
  <!-- Row 3 -->
  <rect x="34" y="80" width="14" height="16" rx="2" fill="url(#windowGrad)"/>
  <rect x="57" y="80" width="14" height="16" rx="2" fill="url(#windowGrad)"/>
  <rect x="80" y="80" width="14" height="16" rx="2" fill="url(#windowGrad)"/>
  
  <!-- Flux arrows (representing energy flow) -->
  <path d="M18 45 L10 64 L18 83" stroke="#FFFFFF" stroke-width="3" fill="none" stroke-linecap="round" stroke-linejoin="round"/>
  <path d="M110 45 L118 64 L110 83" stroke="#FFFFFF" stroke-width="3" fill="none" stroke-linecap="round" stroke-linejoin="round"/>
  
  <!-- Sun rays indicating thermal analysis -->
  <circle cx="108" cy="22" r="8" fill="#FFEB3B"/>
  <line x1="108" y1="6" x2="108" y2="12" stroke="#FFEB3B" stroke-width="2" stroke-linecap="round"/>
  <line x1="122" y1="22" x2="116" y2="22" stroke="#FFEB3B" stroke-width="2" stroke-linecap="round"/>
  <line x1="118" y1="12" x2="114" y2="16" stroke="#FFEB3B" stroke-width="2" stroke-linecap="round"/>
  <line x1="118" y1="32" x2="114" y2="28" stroke="#FFEB3B" stroke-width="2" stroke-linecap="round"/>
  <line x1="98" y1="12" x2="102" y2="16" stroke="#FFEB3B" stroke-width="2" stroke-linecap="round"/>
  <line x1="94" y1="22" x2="100" y2="22" stroke="#FFEB3B" stroke-width="2" stroke-linecap="round"/>
  <line x1="98" y1="32" x2="102" y2="28" stroke="#FFEB3B" stroke-width="2" stroke-linecap="round"/>
  <line x1="108" y1="38" x2="108" y2="32" stroke="#FFEB3B" stroke-width="2" stroke-linecap="round"/>
</svg>
